<svg t="1698041580547" class="icon" viewBox="0 0 1024 1024" version="1.1" xmlns="http://www.w3.org/2000/svg" p-id="1740" width="200" height="200"><path d="M902.36201328 961.98892402H121.61583477A59.62783359 59.62783359 0 0 1 62.01107685 902.45339316V300.10612432a59.62783359 59.62783359 0 0 1 59.60475792-59.53553086h170.96850615c2.21527529-1.8460626 4.45362714-3.64597471 7.26887285-4.7766876L724.14770997 66.25609824a59.69706065 59.69706065 0 0 1 77.46541698 33.18298155l0.50766768 1.40762284 47.5361209 139.72389083h52.70509775a59.60475791 59.60475791 0 0 1 59.58168222 59.53553086V902.45339316A59.60475791 59.60475791 0 0 1 902.36201328 961.98892402z m2.58448799-479.79176484h-295.37007364a13.13012285 13.13012285 0 0 0-12.9455165 12.9455165v144.96209473c0 7.01503945 5.93047705 12.94551651 12.9455165 12.9455165h295.37007364v-170.85312773zM748.53881651 120.2995918a2.69986729 2.69986729 0 0 0-3.23060977-1.15378946L441.44624287 240.57059346h348.00594434l-40.9133707-120.27100166z m153.82319677 177.22204365H121.61583477a2.69986729 2.69986729 0 0 0-2.60756456 2.58448887V902.45339316c0 1.36147148 1.24609219 2.58448799 2.60756456 2.58448799h780.74617851a2.6767916 2.6767916 0 0 0 2.58448799-2.58448798v-192.45206426h-295.37007364a70.01193779 70.01193779 0 0 1-69.96578642-69.8965585v-144.96209473c0-38.55964042 31.38307031-69.91963506 69.96578642-69.91963417h295.37007364v-125.11691719a2.6767916 2.6767916 0 0 0-2.58448799-2.58448887z" p-id="1741"></path></svg>