<svg t="1698045060366" class="icon" viewBox="0 0 1024 1024" version="1.1" xmlns="http://www.w3.org/2000/svg" p-id="2853" id="mx_n_1698045060367" width="200" height="200"><path d="M552.1 800.292l320.946-534.909 54.88 32.928L606.98 833.22zM224 474.7h352v64H224zM224 640h192v64H224zM224 320h352v64H224z" p-id="2854"></path><path d="M128 848V176c0-26.5 21.5-48 48-48h544c26.5 0 48 21.5 48 48v112h64V176c0-61.8-50.2-112-112-112H176c-61.8 0-112 50.2-112 112v672c0 61.8 50.2 112 112 112h464.3v-64H176c-26.5 0-48-21.5-48-48z" p-id="2855"></path></svg>