<svg t="1698223701842" class="icon" viewBox="0 0 1024 1024" version="1.1" xmlns="http://www.w3.org/2000/svg" p-id="1565" width="200" height="200"><path d="M849.50000001 634.72727306a30.68181826 30.68181826 0 0 0 30.68181825-30.68181827V184.72727303a40.90909131 40.90909131 0 0 0-40.90909129-40.90909129h-122.72727218V102.90909131a40.90909131 40.90909131 0 0 0-40.90909131-40.90909131H348.36363653a40.90909131 40.90909131 0 0 0-40.90909132 40.90909131v40.90909043H184.72727303a40.90909131 40.90909131 0 0 0-40.90909129 40.90909129v736.36363566a40.90909131 40.90909131 0 0 0 40.90909132 40.90909131h654.54545391a40.90909131 40.90909131 0 0 0 40.90909129-40.90909131v-132.95454522a30.68181826 30.68181826 0 0 0-61.36363652 0V900.63636348H205.18181826V205.18181826h102.27272695v40.90909043a40.90909131 40.90909131 0 0 0 40.90909132 40.90909131h327.27272695a40.90909131 40.90909131 0 0 0 40.90909131-40.90909131V205.18181826h102.27272695v398.86363653a30.68181826 30.68181826 0 0 0 30.68181825 30.68181824zM655.18181826 225.63636348H368.81818174V123.36363652h286.36363652z m10.22727305 184.09090955h-306.81818262a30.68181826 30.68181826 0 0 0 0 61.36363566h306.81818262a30.68181826 30.68181826 0 0 0 0-61.36363563z m30.68181738 173.86363566a30.68181826 30.68181826 0 0 0-30.68181738-30.68181738h-306.81818262a30.68181826 30.68181826 0 0 0 0 61.36363563h306.81818262a30.68181826 30.68181826 0 0 0 30.68181738-30.68181825zM399.49999999 696.09090869a30.68181826 30.68181826 0 0 0 2e-8 61.36363652h224.99999998a30.68181826 30.68181826 0 0 0 2e-8-61.36363652z" p-id="1566"></path></svg>