<svg t="1698040686053" class="icon" viewBox="0 0 1024 1024" version="1.1" xmlns="http://www.w3.org/2000/svg" p-id="1571" width="200" height="200"><path d="M430.592 934.272a42.56 42.56 0 0 1-52.992 27.776 466.816 466.816 0 0 1-203.968-124.48 42.624 42.624 0 0 1-1.664-57.344c13.248-15.424 19.84-33.728 19.84-54.848 0-23.68-8.32-43.84-24.896-60.416A82.304 82.304 0 0 0 106.432 640h-5.12a42.368 42.368 0 0 1-42.56-18.432 42.56 42.56 0 0 1-6.272-15.04 462.976 462.976 0 0 1 12.032-235.2 42.368 42.368 0 0 1 40.64-29.76h1.28c23.68 0 43.776-8.32 60.416-25.088 16.64-16.64 24.96-36.736 24.96-60.288 0-13.76-2.88-26.56-8.576-38.4a42.624 42.624 0 0 1 9.472-49.92A466.688 466.688 0 0 1 386.176 59.648a42.624 42.624 0 0 1 49.536 21.76c7.04 14.016 17.408 25.216 30.912 33.536 13.824 8.64 29.056 12.928 45.568 12.928 16.256 0 31.232-4.288 44.992-12.864 13.504-8.384 23.808-19.584 30.912-33.536a42.624 42.624 0 0 1 49.472-21.76 473.856 473.856 0 0 1 193.92 108.032 42.496 42.496 0 0 1 9.152 51.2c-5.76 11.136-8.64 23.552-8.64 37.312 0 23.424 8.32 43.52 25.088 60.224 16.768 16.768 36.8 25.152 60.224 25.152h1.92a42.496 42.496 0 0 1 40.704 29.76c14.08 44.48 21.184 91.52 21.184 140.864a469.76 469.76 0 0 1-9.152 94.336 42.24 42.24 0 0 1-17.28 26.304 42.624 42.624 0 0 1-30.592 7.36 64 64 0 0 0-6.784-0.192c-23.488 0-43.584 8.32-60.224 24.96-16.704 16.64-25.088 36.736-25.088 60.352 0 20.608 6.784 39.04 20.288 55.36a42.368 42.368 0 0 1 6.4 43.904 42.944 42.944 0 0 1-8.512 12.928 466.816 466.816 0 0 1-203.968 124.48 43.136 43.136 0 0 1-32.192-3.008 42.176 42.176 0 0 1-20.8-24.768 83.904 83.904 0 0 0-30.528-42.688 82.432 82.432 0 0 0-50.496-16.64c-19.008 0-36.096 5.568-51.072 16.64-14.72 10.88-24.896 25.152-30.528 42.688z m225.28-66.048c40.064-16.192 76.224-38.4 108.544-66.688a166.592 166.592 0 0 1-17.728-76.16 169.088 169.088 0 0 1 50.176-120.832 169.344 169.344 0 0 1 96.64-48.192 409.152 409.152 0 0 0-7.552-132.288 169.92 169.92 0 0 1-89.216-47.232 169.984 169.984 0 0 1-50.048-120.576c0-15.296 1.856-29.952 5.568-43.968a387.2 387.2 0 0 0-108.352-61.056c-11.648 14.08-25.472 26.24-41.6 36.224-27.584 17.152-57.6 25.728-90.112 25.728-32.704 0-62.912-8.576-90.496-25.664a168.448 168.448 0 0 1-41.792-36.288 379.904 379.904 0 0 0-108.16 61.248 175.36 175.36 0 0 1-8 110.08c-8.576 20.416-20.736 38.464-36.48 54.208a169.024 169.024 0 0 1-88.896 47.232 377.792 377.792 0 0 0-7.68 132.416 169.088 169.088 0 0 1 96.576 48.192 169.856 169.856 0 0 1 49.856 120.832c0 27.712-5.824 53.184-17.536 76.288 32.256 28.16 68.352 50.368 108.288 66.56 11.008-17.408 25.152-32.448 42.496-45.248 30.08-22.272 64-33.408 101.824-33.408 37.568 0 71.36 11.136 101.376 33.472 17.28 12.8 31.36 27.84 42.304 45.12z" p-id="1572"></path><path d="M647.808 647.808a191.168 191.168 0 0 1-136 56.384 190.016 190.016 0 0 1-135.808-56.512 190.912 190.912 0 0 1-40.96-61.12A190.976 190.976 0 0 1 320 511.808a190.336 190.336 0 0 1 56.064-135.68A190.336 190.336 0 0 1 511.744 320c26.048 0 51.008 4.992 74.816 15.04 23.04 9.664 43.392 23.296 61.12 40.96a190.016 190.016 0 0 1 56.512 135.808 191.168 191.168 0 0 1-56.384 136zM511.808 405.312c-29.504 0-54.656 10.368-75.392 31.104a102.592 102.592 0 0 0-31.104 75.392c0 29.568 10.432 54.848 31.232 75.712 20.736 20.928 45.824 31.36 75.264 31.36 29.44 0 54.72-10.496 75.648-31.424 20.928-20.928 31.424-46.144 31.424-75.648 0-29.44-10.432-54.528-31.36-75.264a103.552 103.552 0 0 0-75.712-31.232z" p-id="1573"></path></svg>