<svg t="1698223808859" class="icon" viewBox="0 0 1024 1024" version="1.1" xmlns="http://www.w3.org/2000/svg" p-id="1491" width="200" height="200"><path d="M700.85333333 164.07466667h50.10133334v158.60266666h-50.10133334zM700.85333333 353.64266667h50.10133334v48.87466666h-50.10133334z" p-id="1492"></path><path d="M725.90933333 517.16266667c-63.584 0-123.37066667-24.75733333-168.33066666-69.728-44.96-44.96-69.728-104.74666667-69.728-168.33066667S512.608 155.73333333 557.568 110.77333333c44.96-44.96 104.74666667-69.728 168.33066667-69.728s123.37066667 24.75733333 168.33066666 69.728c44.96 44.96 69.728 104.74666667 69.728 168.33066667s-24.75733333 123.37066667-69.728 168.33066667c-44.96 44.97066667-104.736 69.728-168.32 69.728z m0-426.016c-103.63733333 0-187.95733333 84.32-187.95733333 187.95733333s84.32 187.95733333 187.95733333 187.95733333 187.95733333-84.32 187.95733334-187.95733333-84.32-187.95733333-187.95733334-187.95733333z" p-id="1493"></path><path d="M714.15466667 973.952H128.29866667c-41.44 0-75.14666667-33.71733333-75.14666667-75.15733333V232.384c0-41.44 33.71733333-75.15733333 75.14666667-75.15733333h448.992l-18.66666667 36.45866666c-13.728 26.82666667-20.69333333 55.56266667-20.69333333 85.408 0 103.63733333 84.32 187.95733333 187.95733333 187.95733334 10.86933333 0 21.952-1.056 33.856-3.22133334l29.536-5.376v440.34133334c0.02133333 41.44-33.696 75.15733333-75.12533333 75.15733333z m-585.856-766.61333333c-13.81333333 0-25.04533333 11.24266667-25.04533334 25.056v666.42133333c0 13.81333333 11.24266667 25.04533333 25.04533334 25.04533333h585.84533333c13.81333333 0 25.04533333-11.24266667 25.04533333-25.04533333V516.75733333c-4.45866667 0.26666667-8.88533333 0.40533333-13.29066666 0.40533334-63.584 0-123.37066667-24.75733333-168.33066667-69.728-44.96-44.96-69.728-104.74666667-69.728-168.33066667 0-24.62933333 3.73333333-48.64 11.11466667-71.776H128.29866667z" p-id="1494"></path><path d="M216.52266667 374.848h213.93066666v50.10133333H216.52266667zM216.52266667 540.544h411.264v50.10133333H216.52266667zM216.52266667 706.22933333h411.264v50.10133334H216.52266667z" p-id="1495"></path></svg>